<svg id="Layer_1" data-name="Layer 1" xmlns="http://www.w3.org/2000/svg" width="254" height="254" viewBox="0 0 254 254">
  <circle cx="127" cy="127" r="127"/>
  <g>
    <path d="M151,40a61.49,61.49,0,0,0-46.91,101.26L45.46,199.89,59.61,214l59.81-59.82A61.5,61.5,0,1,0,151,40Zm0,103a41.5,41.5,0,1,1,41.5-41.5A41.54,41.54,0,0,1,151,143Z" style="fill: #fff"/>
    <polygon points="172.54 93.46 158.04 93.46 158.04 78.96 143.04 78.96 143.04 93.46 128.54 93.46 128.54 108.46 143.04 108.46 143.04 122.96 158.04 122.96 158.04 108.46 172.54 108.46 172.54 93.46" style="fill: #fff"/>
  </g>
</svg>
