<svg xmlns="http://www.w3.org/2000/svg" width="254" height="254" viewBox="0 0 254 254">
  <g id="Layer_3" data-name="Layer 3">
    <path d="M153.26,1.83A94.72,94.72,0,0,0,69.73,141.25L12.28,198.7a21.46,21.46,0,0,0,0,30.33l16.86,16.86a21.45,21.45,0,0,0,30.33,0l60.58-60.58A94.74,94.74,0,1,0,153.26,1.83Z"/>
  </g>
  <g id="Layer_2" data-name="Layer 2">
    <path d="M153.26,23.28A73.27,73.27,0,0,0,97.37,144L27.45,213.87,44.3,230.72l71.29-71.28A73.29,73.29,0,1,0,153.26,23.28Zm0,122.74a49.46,49.46,0,1,1,49.46-49.45A49.51,49.51,0,0,1,153.26,146Z" style="fill: #fff"/>
  </g>
  <g id="Layer_5" data-name="Layer 5">
    <polygon points="178.88 87.04 161.6 87.04 161.6 69.76 143.73 69.76 143.73 87.04 126.45 87.04 126.45 104.91 143.73 104.91 143.73 122.19 161.6 122.19 161.6 104.91 178.88 104.91 178.88 87.04" style="fill: #fff"/>
  </g>
</svg>
